<svg width="48" height="48" viewBox="0 0 48 48" fill="none" xmlns="http://www.w3.org/2000/svg">
<rect width="48" height="48" rx="8" fill="#E7EDED"/>
<path d="M24.0098 29C23.1598 29 22.2998 28.78 21.6298 28.35L15.6098 24.42C14.4898 23.69 13.8198 22.46 13.8198 21.12C13.8198 19.78 14.4898 18.55 15.6098 17.82L21.6398 13.9C22.9798 13.03 25.0698 13.03 26.3998 13.91L32.3898 17.84C33.4998 18.57 34.1698 19.8 34.1698 21.13C34.1698 22.46 33.4998 23.69 32.3898 24.42L26.3998 28.35C25.7298 28.79 24.8698 29 24.0098 29ZM24.0098 14.75C23.4398 14.75 22.8698 14.88 22.4598 15.16L16.4398 19.08C15.7398 19.54 15.3298 20.28 15.3298 21.12C15.3298 21.96 15.7298 22.7 16.4398 23.16L22.4598 27.09C23.2898 27.63 24.7498 27.63 25.5798 27.09L31.5698 23.16C32.2698 22.7 32.6698 21.96 32.6698 21.12C32.6698 20.28 32.2698 19.54 31.5698 19.08L25.5798 15.15C25.1598 14.89 24.5898 14.75 24.0098 14.75Z" fill="#272A2A"/>
<path d="M24.0002 34.75C23.5602 34.75 23.1102 34.69 22.7502 34.57L19.5602 33.51C18.0502 33.01 16.8602 31.36 16.8702 29.77L16.8802 25.08C16.8802 24.67 17.2202 24.33 17.6302 24.33C18.0402 24.33 18.3802 24.67 18.3802 25.08L18.3702 29.77C18.3702 30.71 19.1502 31.79 20.0402 32.09L23.2302 33.15C23.6302 33.28 24.3702 33.28 24.7702 33.15L27.9602 32.09C28.8502 31.79 29.6302 30.71 29.6302 29.78V25.14C29.6302 24.73 29.9702 24.39 30.3802 24.39C30.7902 24.39 31.1302 24.73 31.1302 25.14V29.78C31.1302 31.37 29.9502 33.01 28.4402 33.52L25.2502 34.58C24.8902 34.69 24.4402 34.75 24.0002 34.75Z" fill="#272A2A"/>
<path d="M33.3999 27.75C32.9899 27.75 32.6499 27.41 32.6499 27V21C32.6499 20.59 32.9899 20.25 33.3999 20.25C33.8099 20.25 34.1499 20.59 34.1499 21V27C34.1499 27.41 33.8099 27.75 33.3999 27.75Z" fill="#272A2A"/>
</svg>
