<svg width="36" height="28" viewBox="0 0 36 28" fill="none" xmlns="http://www.w3.org/2000/svg">
<path d="M32.834 25.642C34.894 23.454 36 21 36 17.022C36 10.022 31.086 3.748 23.94 0.645996L22.154 3.402C28.824 7.01 30.128 11.692 30.648 14.644C29.574 14.088 28.168 13.894 26.79 14.022C23.182 14.356 20.338 17.318 20.338 21C20.338 22.8565 21.0755 24.637 22.3883 25.9497C23.701 27.2625 25.4815 28 27.338 28C29.484 28 31.536 27.02 32.834 25.642ZM12.834 25.642C14.894 23.454 16 21 16 17.022C16 10.022 11.086 3.748 3.94 0.645996L2.154 3.402C8.824 7.01 10.128 11.692 10.648 14.644C9.574 14.088 8.168 13.894 6.79 14.022C3.182 14.356 0.338001 17.318 0.338001 21C0.338001 22.8565 1.0755 24.637 2.38825 25.9497C3.70101 27.2625 5.48149 28 7.338 28C9.484 28 11.536 27.02 12.834 25.642Z" fill="#272A2A" fill-opacity="0.4"/>
</svg>
