<svg width="72" height="72" viewBox="0 0 72 72" fill="none" xmlns="http://www.w3.org/2000/svg">
<g filter="url(#filter0_dd_601_3936)">
<rect x="14" y="10" width="44" height="44" rx="22" fill="white"/>
</g>
<g clip-path="url(#clip0_601_3936)">
<path d="M33.3338 32C33.3338 30.5273 34.5273 29.3331 36 29.3331C37.4727 29.3331 38.6669 30.5273 38.6669 32C38.6669 33.4727 37.4727 34.6669 36 34.6669C34.5273 34.6669 33.3338 33.4727 33.3338 32ZM31.8921 32C31.8921 34.2688 33.7312 36.1079 36 36.1079C38.2688 36.1079 40.1079 34.2688 40.1079 32C40.1079 29.7312 38.2688 27.8921 36 27.8921C33.7312 27.8921 31.8921 29.7312 31.8921 32ZM39.3105 27.7292C39.3105 28.2591 39.7402 28.6895 40.2708 28.6895C40.8006 28.6895 41.231 28.2591 41.231 27.7292C41.231 27.1994 40.8013 26.7696 40.2708 26.7696C39.7402 26.7696 39.3105 27.1994 39.3105 27.7292ZM32.7677 38.5118C31.9877 38.4763 31.5638 38.3464 31.2821 38.2365C30.9086 38.0911 30.6423 37.9179 30.3619 37.6381C30.0821 37.3583 29.9082 37.0921 29.7635 36.7186C29.6536 36.4368 29.5237 36.0129 29.4882 35.233C29.4494 34.3897 29.4417 34.1363 29.4417 32C29.4417 29.8637 29.4501 29.611 29.4882 28.767C29.5237 27.9871 29.6543 27.5638 29.7635 27.2814C29.9089 26.9079 30.0821 26.6417 30.3619 26.3612C30.6417 26.0814 30.9079 25.9076 31.2821 25.7628C31.5638 25.653 31.9877 25.5231 32.7677 25.4876C33.611 25.4488 33.8643 25.441 36 25.441C38.1363 25.441 38.389 25.4494 39.233 25.4876C40.0129 25.5231 40.4362 25.6536 40.7186 25.7628C41.0921 25.9076 41.3583 26.0814 41.6388 26.3612C41.9186 26.641 42.0918 26.9079 42.2372 27.2814C42.347 27.5632 42.4769 27.9871 42.5124 28.767C42.5512 29.611 42.559 29.8637 42.559 32C42.559 34.1357 42.5512 34.389 42.5124 35.233C42.4769 36.0129 42.3464 36.4368 42.2372 36.7186C42.0918 37.0921 41.9186 37.3583 41.6388 37.6381C41.359 37.9179 41.0921 38.0911 40.7186 38.2365C40.4368 38.3464 40.0129 38.4763 39.233 38.5118C38.3897 38.5506 38.1363 38.5583 36 38.5583C33.8643 38.5583 33.611 38.5506 32.7677 38.5118ZM32.7018 24.0485C31.8501 24.0872 31.2685 24.2223 30.7599 24.42C30.2339 24.6242 29.788 24.8982 29.3428 25.3428C28.8982 25.7874 28.6242 26.2333 28.42 26.7599C28.2223 27.2685 28.0872 27.8501 28.0485 28.7018C28.009 29.5548 28 29.8275 28 32C28 34.1725 28.009 34.4452 28.0485 35.2982C28.0872 36.1499 28.2223 36.7315 28.42 37.2401C28.6242 37.7661 28.8976 38.2126 29.3428 38.6572C29.7874 39.1018 30.2333 39.3751 30.7599 39.58C31.2691 39.7777 31.8501 39.9128 32.7018 39.9515C33.5554 39.9903 33.8275 40 36 40C38.1732 40 38.4452 39.991 39.2982 39.9515C40.1499 39.9128 40.7315 39.7777 41.2401 39.58C41.7661 39.3751 42.212 39.1018 42.6572 38.6572C43.1018 38.2126 43.3751 37.7661 43.58 37.2401C43.7777 36.7315 43.9134 36.1499 43.9515 35.2982C43.9903 34.4446 43.9994 34.1725 43.9994 32C43.9994 29.8275 43.9903 29.5548 43.9515 28.7018C43.9128 27.8501 43.7777 27.2685 43.58 26.7599C43.3751 26.2339 43.1018 25.788 42.6572 25.3428C42.2126 24.8982 41.7661 24.6242 41.2407 24.42C40.7315 24.2223 40.1499 24.0866 39.2989 24.0485C38.4459 24.0097 38.1732 24 36.0006 24C33.8275 24 33.5554 24.009 32.7018 24.0485Z" fill="#8A9393"/>
</g>
<defs>
<filter id="filter0_dd_601_3936" x="0" y="0" width="72" height="72" filterUnits="userSpaceOnUse" color-interpolation-filters="sRGB">
<feFlood flood-opacity="0" result="BackgroundImageFix"/>
<feColorMatrix in="SourceAlpha" type="matrix" values="0 0 0 0 0 0 0 0 0 0 0 0 0 0 0 0 0 0 127 0" result="hardAlpha"/>
<feOffset dy="1"/>
<feGaussianBlur stdDeviation="1"/>
<feComposite in2="hardAlpha" operator="out"/>
<feColorMatrix type="matrix" values="0 0 0 0 0.716233 0 0 0 0 0.770833 0 0 0 0 0.770833 0 0 0 0.37 0"/>
<feBlend mode="normal" in2="BackgroundImageFix" result="effect1_dropShadow_601_3936"/>
<feColorMatrix in="SourceAlpha" type="matrix" values="0 0 0 0 0 0 0 0 0 0 0 0 0 0 0 0 0 0 127 0" result="hardAlpha"/>
<feMorphology radius="2" operator="erode" in="SourceAlpha" result="effect2_dropShadow_601_3936"/>
<feOffset dy="4"/>
<feGaussianBlur stdDeviation="8"/>
<feComposite in2="hardAlpha" operator="out"/>
<feColorMatrix type="matrix" values="0 0 0 0 0.742535 0 0 0 0 0.758333 0 0 0 0 0.758333 0 0 0 0.32 0"/>
<feBlend mode="normal" in2="effect1_dropShadow_601_3936" result="effect2_dropShadow_601_3936"/>
<feBlend mode="normal" in="SourceGraphic" in2="effect2_dropShadow_601_3936" result="shape"/>
</filter>
<clipPath id="clip0_601_3936">
<rect width="16" height="16" fill="white" transform="translate(28 24)"/>
</clipPath>
</defs>
</svg>
