<svg width="163" height="24" viewBox="0 0 163 24" fill="none" xmlns="http://www.w3.org/2000/svg">
<path d="M37.2578 18H44.5547V16.7344H39.2109V16.6094L41.7734 13.9609C43.8125 11.8594 44.3672 10.9219 44.3672 9.63281V9.61719C44.3672 7.79688 42.8594 6.46094 40.8906 6.46094C38.7344 6.46094 37.1875 7.89844 37.1797 9.89844L37.1953 9.90625L38.5391 9.91406L38.5469 9.89844C38.5469 8.57031 39.4453 7.6875 40.7969 7.6875C42.125 7.6875 42.9297 8.57812 42.9297 9.76562V9.78125C42.9297 10.7656 42.5078 11.3516 41.0703 12.9062L37.2578 17.0312V18ZM50.3675 18.2656C52.8597 18.2656 54.3597 15.9922 54.3597 12.3672V12.3516C54.3597 8.72656 52.8597 6.46094 50.3675 6.46094C47.8753 6.46094 46.3909 8.72656 46.3909 12.3516V12.3672C46.3909 15.9922 47.8753 18.2656 50.3675 18.2656ZM50.3675 17.0391C48.7503 17.0391 47.805 15.2422 47.805 12.3672V12.3516C47.805 9.47656 48.7503 7.69531 50.3675 7.69531C51.9847 7.69531 52.9456 9.47656 52.9456 12.3516V12.3672C52.9456 15.2422 51.9847 17.0391 50.3675 17.0391ZM56.3522 18H63.6491V16.7344H58.3053V16.6094L60.8678 13.9609C62.9069 11.8594 63.4616 10.9219 63.4616 9.63281V9.61719C63.4616 7.79688 61.9538 6.46094 59.985 6.46094C57.8288 6.46094 56.2819 7.89844 56.2741 9.89844L56.2897 9.90625L57.6334 9.91406L57.6413 9.89844C57.6413 8.57031 58.5397 7.6875 59.8913 7.6875C61.2194 7.6875 62.0241 8.57812 62.0241 9.76562V9.78125C62.0241 10.7656 61.6022 11.3516 60.1647 12.9062L56.3522 17.0312V18ZM65.6884 18H72.9853V16.7344H67.6416V16.6094L70.2041 13.9609C72.2431 11.8594 72.7978 10.9219 72.7978 9.63281V9.61719C72.7978 7.79688 71.29 6.46094 69.3213 6.46094C67.165 6.46094 65.6181 7.89844 65.6103 9.89844L65.6259 9.90625L66.9697 9.91406L66.9775 9.89844C66.9775 8.57031 67.8759 7.6875 69.2275 7.6875C70.5556 7.6875 71.3603 8.57812 71.3603 9.76562V9.78125C71.3603 10.7656 70.9384 11.3516 69.5009 12.9062L65.6884 17.0312V18ZM79.3844 18H80.7906V14.0625L82.1422 12.5703L86.2125 18H88.0328L83.1109 11.5938L87.6188 6.72656H85.8531L80.9156 12.2031H80.7906V6.72656H79.3844V18ZM92.2753 18.1484C94.6738 18.1484 96.1581 16.4922 96.1581 13.7969V13.7812C96.1581 11.0781 94.6738 9.42969 92.2753 9.42969C89.8769 9.42969 88.3925 11.0781 88.3925 13.7812V13.7969C88.3925 16.4922 89.8769 18.1484 92.2753 18.1484ZM92.2753 16.9453C90.6816 16.9453 89.7831 15.7812 89.7831 13.7969V13.7812C89.7831 11.7891 90.6816 10.6328 92.2753 10.6328C93.8691 10.6328 94.7675 11.7891 94.7675 13.7812V13.7969C94.7675 15.7812 93.8691 16.9453 92.2753 16.9453ZM101.408 18.1484C103.807 18.1484 105.291 16.4922 105.291 13.7969V13.7812C105.291 11.0781 103.807 9.42969 101.408 9.42969C99.01 9.42969 97.5256 11.0781 97.5256 13.7812V13.7969C97.5256 16.4922 99.01 18.1484 101.408 18.1484ZM101.408 16.9453C99.8147 16.9453 98.9162 15.7812 98.9162 13.7969V13.7812C98.9162 11.7891 99.8147 10.6328 101.408 10.6328C103.002 10.6328 103.901 11.7891 103.901 13.7812V13.7969C103.901 15.7812 103.002 16.9453 101.408 16.9453ZM107.159 18H108.518V6.23438H107.159V18ZM115.518 18.2656C117.917 18.2656 119.698 16.9297 120.073 14.8672V14.8516H118.651L118.636 14.8672C118.284 16.1641 117.089 16.9688 115.518 16.9688C113.347 16.9688 111.987 15.1953 111.987 12.375V12.3594C111.987 9.53906 113.347 7.75781 115.511 7.75781C117.065 7.75781 118.268 8.67188 118.643 10.1172L118.651 10.1328H120.065L120.073 10.1172C119.737 7.95312 117.886 6.46094 115.511 6.46094C112.448 6.46094 110.542 8.72656 110.542 12.3594V12.375C110.542 16 112.456 18.2656 115.518 18.2656ZM125.402 18.1484C127.8 18.1484 129.284 16.4922 129.284 13.7969V13.7812C129.284 11.0781 127.8 9.42969 125.402 9.42969C123.003 9.42969 121.519 11.0781 121.519 13.7812V13.7969C121.519 16.4922 123.003 18.1484 125.402 18.1484ZM125.402 16.9453C123.808 16.9453 122.909 15.7812 122.909 13.7969V13.7812C122.909 11.7891 123.808 10.6328 125.402 10.6328C126.995 10.6328 127.894 11.7891 127.894 13.7812V13.7969C127.894 15.7812 126.995 16.9453 125.402 16.9453ZM134.183 18.1484C135.355 18.1484 136.293 17.5938 136.808 16.6562H136.933V18H138.293V6.23438H136.933V10.9062H136.808C136.347 10.0078 135.339 9.42969 134.183 9.42969C132.043 9.42969 130.652 11.1406 130.652 13.7812V13.7969C130.652 16.4219 132.05 18.1484 134.183 18.1484ZM134.496 16.9453C132.957 16.9453 132.043 15.7578 132.043 13.7969V13.7812C132.043 11.8203 132.957 10.6328 134.496 10.6328C136.027 10.6328 136.964 11.8359 136.964 13.7812V13.7969C136.964 15.7422 136.027 16.9453 134.496 16.9453ZM144.019 18.1484C146.004 18.1484 147.207 17.0234 147.496 15.8828L147.512 15.8203H146.152L146.121 15.8906C145.894 16.3984 145.191 16.9375 144.051 16.9375C142.551 16.9375 141.59 15.9219 141.551 14.1797H147.613V13.6484C147.613 11.1328 146.223 9.42969 143.933 9.42969C141.644 9.42969 140.16 11.2109 140.16 13.8125V13.8203C140.16 16.4609 141.613 18.1484 144.019 18.1484ZM143.926 10.6406C145.168 10.6406 146.09 11.4297 146.23 13.0938H141.574C141.723 11.4922 142.676 10.6406 143.926 10.6406ZM149.402 18H150.762V12.7812C150.762 11.5469 151.684 10.7266 152.981 10.7266C153.277 10.7266 153.535 10.7578 153.817 10.8047V9.48438C153.684 9.46094 153.395 9.42969 153.137 9.42969C151.996 9.42969 151.207 9.94531 150.887 10.8281H150.762V9.57812H149.402V18ZM157.911 18.1484C159.825 18.1484 161.286 17.1094 161.286 15.6094V15.5938C161.286 14.3906 160.52 13.7031 158.934 13.3203L157.637 13.0078C156.645 12.7656 156.223 12.4062 156.223 11.8359V11.8203C156.223 11.0781 156.957 10.5625 157.957 10.5625C158.973 10.5625 159.629 11.0234 159.809 11.6875H161.145C160.957 10.3125 159.731 9.42969 157.965 9.42969C156.176 9.42969 154.832 10.4844 154.832 11.8828V11.8906C154.832 13.1016 155.543 13.7891 157.122 14.1641L158.426 14.4766C159.465 14.7266 159.895 15.125 159.895 15.6953V15.7109C159.895 16.4766 159.09 17.0156 157.957 17.0156C156.879 17.0156 156.207 16.5547 155.981 15.8516H154.59C154.747 17.2422 156.036 18.1484 157.911 18.1484Z" fill="#272A2A"/>
<path d="M12 22C6.48 22 2 17.52 2 12C2 6.48 6.48 2 12 2C17.52 2 22 6.48 22 12C22 17.52 17.52 22 12 22Z" stroke="#272A2A" stroke-width="1.5" stroke-linecap="round" stroke-linejoin="round"/>
<path d="M14.8802 15C14.1702 15.62 13.2502 16 12.2402 16C10.0302 16 8.24023 14.21 8.24023 12C8.24023 9.79 10.0302 8 12.2402 8C13.2502 8 14.1702 8.38 14.8802 9" stroke="#272A2A" stroke-width="1.5" stroke-linecap="round" stroke-linejoin="round"/>
</svg>
