<svg width="14" height="16" viewBox="0 0 14 16" fill="none" xmlns="http://www.w3.org/2000/svg">
<path d="M5.89335 10.5815C5.47255 12.7847 4.95975 14.8967 3.43895 15.9999C2.97015 12.6703 4.12775 10.1703 4.66615 7.51586C3.74855 5.97186 4.77655 2.86625 6.71015 3.63185C9.09015 4.57265 4.64935 9.36946 7.63015 9.96945C10.743 10.5943 12.0134 4.56945 10.083 2.61025C7.29495 -0.220146 1.96615 2.54385 2.62215 6.59585C2.78135 7.58626 3.80455 7.88626 3.03095 9.25346C1.24615 8.85826 0.713352 7.45025 0.782152 5.57345C0.892552 2.50145 3.54135 0.351854 6.19895 0.0534541C9.55975 -0.323346 12.7142 1.28785 13.1502 4.44865C13.6406 8.01745 11.6334 11.8831 8.03895 11.6047C7.06455 11.5287 6.65655 11.0455 5.89335 10.5815Z" fill="#8A9393"/>
</svg>
