<svg width="16" height="16" viewBox="0 0 16 16" fill="none" xmlns="http://www.w3.org/2000/svg">
<path fill-rule="evenodd" clip-rule="evenodd" d="M16 1.89583C15.3976 2.21953 14.7953 2.45075 14.1176 2.54323C14.7953 2.03456 15.3223 1.24843 15.5482 0.323573C14.9082 0.786003 14.1929 1.1097 13.4776 1.29467C12.8753 0.508546 12.0094 -0.00012207 11.0682 -0.00012207C9.26118 -0.00012207 7.79294 1.80334 7.79294 4.023C7.79294 4.3467 7.83058 4.67039 7.86823 4.94786C5.12 4.76288 2.71059 3.19063 1.09176 0.739762C0.790588 1.34092 0.64 2.03456 0.64 2.77444C0.64 4.16173 1.20471 5.41028 2.10823 6.15017C1.58118 6.15017 1.05412 5.9652 0.602353 5.64149V5.68774C0.602353 7.62994 1.73177 9.29467 3.23765 9.66461C2.97411 9.7571 2.67294 9.80334 2.37176 9.80334C2.14588 9.80334 1.95764 9.7571 1.76941 9.71086C2.18353 11.3293 3.38824 12.4854 4.85647 12.5317C3.72706 13.5952 2.33412 14.2427 0.790588 14.2427C0.52706 14.2427 0.263532 14.2427 0 14.1964C1.46824 15.3525 3.16235 15.9999 5.0447 15.9999C11.1059 15.9999 14.3812 9.84958 14.3812 4.53167C14.3812 4.3467 14.3812 4.16173 14.3812 4.023C15.0212 3.42185 15.5859 2.68196 16 1.89583Z" fill="#8A9393"/>
</svg>
