<svg width="72" height="72" viewBox="0 0 72 72" fill="none" xmlns="http://www.w3.org/2000/svg">
<g filter="url(#filter0_dd_498_3832)">
<rect x="14" y="10" width="44" height="44" rx="22" fill="white"/>
</g>
<path fill-rule="evenodd" clip-rule="evenodd" d="M44 25.8958C43.3976 26.2195 42.7953 26.4507 42.1176 26.5432C42.7953 26.0346 43.3223 25.2484 43.5482 24.3236C42.9082 24.786 42.1929 25.1097 41.4776 25.2947C40.8753 24.5085 40.0094 23.9999 39.0682 23.9999C37.2612 23.9999 35.7929 25.8033 35.7929 28.023C35.7929 28.3467 35.8306 28.6704 35.8682 28.9479C33.12 28.7629 30.7106 27.1906 29.0918 24.7398C28.7906 25.3409 28.64 26.0346 28.64 26.7744C28.64 28.1617 29.2047 29.4103 30.1082 30.1502C29.5812 30.1502 29.0541 29.9652 28.6024 29.6415V29.6877C28.6024 31.6299 29.7318 33.2947 31.2376 33.6646C30.9741 33.7571 30.6729 33.8033 30.3718 33.8033C30.1459 33.8033 29.9576 33.7571 29.7694 33.7109C30.1835 35.3293 31.3882 36.4854 32.8565 36.5317C31.7271 37.5952 30.3341 38.2427 28.7906 38.2427C28.5271 38.2427 28.2635 38.2427 28 38.1964C29.4682 39.3525 31.1624 39.9999 33.0447 39.9999C39.1059 39.9999 42.3812 33.8496 42.3812 28.5317C42.3812 28.3467 42.3812 28.1617 42.3812 28.023C43.0212 27.4218 43.5859 26.682 44 25.8958Z" fill="#8A9393"/>
<defs>
<filter id="filter0_dd_498_3832" x="0" y="0" width="72" height="72" filterUnits="userSpaceOnUse" color-interpolation-filters="sRGB">
<feFlood flood-opacity="0" result="BackgroundImageFix"/>
<feColorMatrix in="SourceAlpha" type="matrix" values="0 0 0 0 0 0 0 0 0 0 0 0 0 0 0 0 0 0 127 0" result="hardAlpha"/>
<feOffset dy="1"/>
<feGaussianBlur stdDeviation="1"/>
<feComposite in2="hardAlpha" operator="out"/>
<feColorMatrix type="matrix" values="0 0 0 0 0.716233 0 0 0 0 0.770833 0 0 0 0 0.770833 0 0 0 0.37 0"/>
<feBlend mode="normal" in2="BackgroundImageFix" result="effect1_dropShadow_498_3832"/>
<feColorMatrix in="SourceAlpha" type="matrix" values="0 0 0 0 0 0 0 0 0 0 0 0 0 0 0 0 0 0 127 0" result="hardAlpha"/>
<feMorphology radius="2" operator="erode" in="SourceAlpha" result="effect2_dropShadow_498_3832"/>
<feOffset dy="4"/>
<feGaussianBlur stdDeviation="8"/>
<feComposite in2="hardAlpha" operator="out"/>
<feColorMatrix type="matrix" values="0 0 0 0 0.742535 0 0 0 0 0.758333 0 0 0 0 0.758333 0 0 0 0.32 0"/>
<feBlend mode="normal" in2="effect1_dropShadow_498_3832" result="effect2_dropShadow_498_3832"/>
<feBlend mode="normal" in="SourceGraphic" in2="effect2_dropShadow_498_3832" result="shape"/>
</filter>
</defs>
</svg>
