<svg width="72" height="72" viewBox="0 0 72 72" fill="none" xmlns="http://www.w3.org/2000/svg">
<g filter="url(#filter0_dd_498_3821)">
<rect x="14" y="10" width="44" height="44" rx="22" fill="white"/>
</g>
<g clip-path="url(#clip0_498_3821)">
<path d="M43.9664 26.7536C43.3166 25.9812 42.117 25.6661 39.826 25.6661H31.5097C29.1663 25.6661 27.9464 26.0015 27.2991 26.8238C26.668 27.6256 26.668 28.8069 26.668 30.4419V33.5582C26.668 36.7256 27.4168 38.3338 31.5097 38.3338H39.8261C41.8128 38.3338 42.9137 38.0558 43.6259 37.3742C44.3563 36.6752 44.668 35.534 44.668 33.5582V30.4419C44.668 28.7177 44.6191 27.5294 43.9664 26.7536ZM38.224 32.4302L34.4476 34.4039C34.3632 34.448 34.2709 34.4699 34.1787 34.4699C34.0743 34.4699 33.9701 34.4418 33.8778 34.386C33.7041 34.2807 33.598 34.0924 33.598 33.8893V29.9546C33.598 29.7518 33.7038 29.5637 33.8772 29.4584C34.0506 29.3531 34.2663 29.3459 34.4463 29.4393L38.2227 31.4003C38.4148 31.5001 38.5355 31.6984 38.5358 31.9148C38.536 32.1314 38.4159 32.33 38.224 32.4302Z" fill="#8A9393"/>
</g>
<defs>
<filter id="filter0_dd_498_3821" x="0" y="0" width="72" height="72" filterUnits="userSpaceOnUse" color-interpolation-filters="sRGB">
<feFlood flood-opacity="0" result="BackgroundImageFix"/>
<feColorMatrix in="SourceAlpha" type="matrix" values="0 0 0 0 0 0 0 0 0 0 0 0 0 0 0 0 0 0 127 0" result="hardAlpha"/>
<feOffset dy="1"/>
<feGaussianBlur stdDeviation="1"/>
<feComposite in2="hardAlpha" operator="out"/>
<feColorMatrix type="matrix" values="0 0 0 0 0.716233 0 0 0 0 0.770833 0 0 0 0 0.770833 0 0 0 0.37 0"/>
<feBlend mode="normal" in2="BackgroundImageFix" result="effect1_dropShadow_498_3821"/>
<feColorMatrix in="SourceAlpha" type="matrix" values="0 0 0 0 0 0 0 0 0 0 0 0 0 0 0 0 0 0 127 0" result="hardAlpha"/>
<feMorphology radius="2" operator="erode" in="SourceAlpha" result="effect2_dropShadow_498_3821"/>
<feOffset dy="4"/>
<feGaussianBlur stdDeviation="8"/>
<feComposite in2="hardAlpha" operator="out"/>
<feColorMatrix type="matrix" values="0 0 0 0 0.742535 0 0 0 0 0.758333 0 0 0 0 0.758333 0 0 0 0.32 0"/>
<feBlend mode="normal" in2="effect1_dropShadow_498_3821" result="effect2_dropShadow_498_3821"/>
<feBlend mode="normal" in="SourceGraphic" in2="effect2_dropShadow_498_3821" result="shape"/>
</filter>
<clipPath id="clip0_498_3821">
<rect width="18" height="18" fill="white" transform="translate(26.668 23)"/>
</clipPath>
</defs>
</svg>
